<svg width="41" height="18" viewBox="0 0 41 18" fill="none" xmlns="http://www.w3.org/2000/svg">
<rect width="41" height="18" rx="9" fill="white"/>
<path d="M10.7208 5.4626L11.4541 6.92926C11.5541 7.13343 11.8208 7.32926 12.0458 7.36676L13.375 7.5876C14.225 7.72926 14.425 8.34593 13.8125 8.95426L12.7791 9.9876C12.6041 10.1626 12.5083 10.5001 12.5625 10.7418L12.8583 12.0209C13.0916 13.0334 12.5541 13.4251 11.6583 12.8959L10.4125 12.1584C10.1875 12.0251 9.81663 12.0251 9.58746 12.1584L8.34163 12.8959C7.44996 13.4251 6.9083 13.0293 7.14163 12.0209L7.43746 10.7418C7.49163 10.5001 7.3958 10.1626 7.2208 9.9876L6.18746 8.95426C5.57913 8.34593 5.77496 7.72926 6.62496 7.5876L7.95413 7.36676C8.17496 7.32926 8.44163 7.13343 8.54163 6.92926L9.27496 5.4626C9.67496 4.66676 10.325 4.66676 10.7208 5.4626Z" fill="#5436F8"/>
<path d="M22.3764 14.788C21.7604 14.788 21.2084 14.648 20.7204 14.368C20.2324 14.096 19.8604 13.724 19.6044 13.252L20.3964 12.496C20.6204 12.84 20.9084 13.112 21.2604 13.312C21.6124 13.52 21.9884 13.624 22.3884 13.624C22.7164 13.624 23.0084 13.552 23.2644 13.408C23.5204 13.272 23.7204 13.08 23.8644 12.832C24.0164 12.576 24.0924 12.284 24.0924 11.956C24.0924 11.636 24.0204 11.356 23.8764 11.116C23.7324 10.868 23.5404 10.68 23.3004 10.552C23.0604 10.416 22.7844 10.348 22.4724 10.348C22.1684 10.348 21.8844 10.416 21.6204 10.552C21.3564 10.688 21.1404 10.88 20.9724 11.128H19.8084L20.7804 6.148H24.9444V7.36H21.7404L21.3084 9.688C21.4444 9.544 21.6284 9.428 21.8604 9.34C22.0924 9.244 22.3564 9.196 22.6524 9.196C23.1884 9.196 23.6644 9.316 24.0804 9.556C24.5044 9.788 24.8364 10.108 25.0764 10.516C25.3244 10.924 25.4484 11.396 25.4484 11.932C25.4484 12.5 25.3124 12.996 25.0404 13.42C24.7684 13.852 24.4004 14.188 23.9364 14.428C23.4724 14.668 22.9524 14.788 22.3764 14.788ZM26.5738 13V11.464H27.6658V13H26.5738ZM35.1525 9.484C35.1525 10.188 35.0165 10.816 34.7445 11.368C34.4805 11.912 34.1165 12.34 33.6525 12.652C33.1965 12.964 32.6725 13.12 32.0805 13.12C31.4965 13.12 30.9725 12.964 30.5085 12.652C30.0445 12.34 29.6765 11.912 29.4045 11.368C29.1405 10.816 29.0085 10.188 29.0085 9.484C29.0085 8.78 29.1405 8.156 29.4045 7.612C29.6765 7.06 30.0445 6.628 30.5085 6.316C30.9725 5.996 31.4965 5.836 32.0805 5.836C32.6725 5.836 33.1965 5.996 33.6525 6.316C34.1165 6.628 34.4805 7.06 34.7445 7.612C35.0165 8.156 35.1525 8.78 35.1525 9.484ZM33.8085 9.484C33.8085 9.004 33.7365 8.584 33.5925 8.224C33.4485 7.856 33.2445 7.572 32.9805 7.372C32.7165 7.164 32.4165 7.06 32.0805 7.06C31.7365 7.06 31.4325 7.164 31.1685 7.372C30.9045 7.572 30.6965 7.856 30.5445 8.224C30.4005 8.584 30.3285 9.004 30.3285 9.484C30.3285 9.964 30.4005 10.384 30.5445 10.744C30.6965 11.104 30.9045 11.388 31.1685 11.596C31.4325 11.796 31.7365 11.896 32.0805 11.896C32.4165 11.896 32.7125 11.796 32.9685 11.596C33.2325 11.388 33.4365 11.104 33.5805 10.744C33.7325 10.384 33.8085 9.964 33.8085 9.484Z" fill="#1E1E1E"/>
</svg>
